<svg width="55" height="55" viewBox="0 0 55 55" fill="none" xmlns="http://www.w3.org/2000/svg">
<path d="M45.8334 46.9792H9.16671C6.64587 46.9792 4.58337 44.9167 4.58337 42.3958V18.4479C4.58337 16.9583 5.27087 15.5833 6.53129 14.6667L27.5 0L48.4688 14.6667C49.7292 15.4688 50.4167 16.9583 50.4167 18.4479V42.3958C50.4167 44.9167 48.3542 46.9792 45.8334 46.9792Z" fill="#78909C"/>
<path d="M13.75 12.6042H41.25V37.8125H13.75V12.6042Z" fill="white"/>
<path d="M45.8334 46.9792H9.16671C6.64587 46.9792 4.58337 44.9167 4.58337 42.3958V19.4792L27.5 34.375L50.4167 19.4792V42.3958C50.4167 44.9167 48.3542 46.9792 45.8334 46.9792Z" fill="#F4C8D5"/>
<path d="M31.3857 27.1299C31.4912 27.335 31.5586 27.499 31.5879 27.6221C31.623 27.7451 31.6055 27.8389 31.5352 27.9033C31.4648 27.9678 31.3359 28.0088 31.1484 28.0264C30.9668 28.0439 30.7119 28.0527 30.3838 28.0527C30.1084 28.0527 29.8916 28.0469 29.7334 28.0352C29.5752 28.0234 29.4492 28.0059 29.3555 27.9824C29.2676 27.9531 29.2031 27.915 29.1621 27.8682C29.1211 27.8213 29.0859 27.7627 29.0566 27.6924L26.9209 23.5879L24.7939 27.6924C24.7588 27.7627 24.7207 27.8213 24.6797 27.8682C24.6387 27.915 24.5713 27.9531 24.4775 27.9824C24.3896 28.0059 24.2637 28.0234 24.0996 28.0352C23.9414 28.0469 23.7305 28.0527 23.4668 28.0527C23.1621 28.0527 22.9248 28.0439 22.7549 28.0264C22.5908 28.0088 22.4795 27.9678 22.4209 27.9033C22.3623 27.8389 22.3506 27.7451 22.3857 27.6221C22.4209 27.499 22.4941 27.335 22.6055 27.1299L25.3301 22.1641L22.7988 17.4971C22.6934 17.2861 22.6201 17.1191 22.5791 16.9961C22.5439 16.8672 22.5586 16.7734 22.623 16.7148C22.6934 16.6504 22.8193 16.6123 23.001 16.6006C23.1826 16.583 23.4404 16.5742 23.7744 16.5742C24.0498 16.5742 24.2666 16.5801 24.4248 16.5918C24.5889 16.6035 24.7178 16.624 24.8115 16.6533C24.9053 16.6768 24.9697 16.7119 25.0049 16.7588C25.0459 16.8057 25.084 16.8643 25.1191 16.9346L27.1143 20.6963L29.0566 16.9346C29.0918 16.8643 29.127 16.8057 29.1621 16.7588C29.2031 16.7119 29.2646 16.6768 29.3467 16.6533C29.4346 16.624 29.5518 16.6035 29.6982 16.5918C29.8506 16.5801 30.0586 16.5742 30.3223 16.5742C30.6152 16.5742 30.8467 16.583 31.0166 16.6006C31.1865 16.6123 31.3037 16.6504 31.3682 16.7148C31.4326 16.7793 31.4473 16.873 31.4121 16.9961C31.3828 17.1191 31.3184 17.2861 31.2188 17.4971L28.6875 22.1377L31.3857 27.1299Z" fill="#FF7979"/>
</svg>
